<svg id="Protect" xmlns="http://www.w3.org/2000/svg" viewBox="0 0 150 150">
  <style>
    .st0{fill:#1a237e;stroke:#fff;stroke-width:1.3212;stroke-miterlimit:10}
  </style>
  <path class="st0" d="M114.9 21.6H42.5c-3.3 0-6 2.9-6 6.4v76.8c0 3.5 2.7 6.4 6 6.4h72.4c3.3 0 6-2.9 6-6.4V28c0-3.6-2.7-6.4-6-6.4zM40.5 46.7H50v4.1h-9.5v-4.1zm0 8.4h5.7v22.6h-5.7V55.1zm0 26.9H50v4.1h-9.5V82zm76.4 22.8c0 1.2-.9 2.1-2 2.1H42.5c-1.1 0-2-1-2-2.1V90.4h5.7v7.4c0 1.7 1.3 3.1 2.9 3.1h59.1c1.6 0 2.9-1.4 2.9-3.1V35c0-1.7-1.3-3.1-2.9-3.1h-59c-1.6 0-2.9 1.4-2.9 3.1v7.4h-5.7V28c0-1.2.9-2.1 2-2.1H115c1.1 0 2 1 2 2.1l-.1 76.8zM52.1 77.7h-2V55.1h2c1.1 0 2-1 2-2.1v-8.4c0-1.2-.9-2.1-2-2.1h-2V36h57.3v60.8H50.1v-6.5h2c1.1 0 2-1 2-2.1v-8.4c0-1.2-.9-2.1-2-2.1z"/>
  <path class="st0" d="M92.7 51.6a18.9 18.9 0 0 0-27.9 0c-7.7 8.2-7.7 21.4 0 29.6a18.91 18.91 0 0 0 27.8 0c7.7-8.2 7.7-21.4.1-29.6zm2 12.9h-5c-.3-1.8-.9-3.5-1.9-4.9l3.6-3.8c1.8 2.5 3 5.6 3.3 8.7zM80.5 49.4c2.9.3 5.8 1.5 8.2 3.6l-3.6 3.8c-1.4-1.1-3-1.7-4.6-2v-5.4zm-3.6 0v5.4c-1.7.3-3.3 1-4.6 2L68.7 53c2.4-2 5.3-3.2 8.2-3.6zm-10.7 6.4l3.6 3.8c-1 1.5-1.6 3.1-1.9 4.9h-5c.2-3.1 1.3-6.2 3.3-8.7zm-3.4 12.5h5c.3 1.8.9 3.5 1.9 4.9L66.2 77c-2-2.5-3.1-5.6-3.4-8.7zm14.1 15.1c-2.9-.3-5.8-1.5-8.2-3.6l3.6-3.8c1.4 1.1 3 1.7 4.6 2v5.4zM73.5 72a8.21 8.21 0 0 1 0-11.2c1.4-1.5 3.3-2.3 5.3-2.3s3.9.8 5.3 2.3a8.21 8.21 0 0 1 0 11.2 7.2 7.2 0 0 1-5.3 2.3c-2.1 0-3.9-.8-5.3-2.3zm7 11.4V78c1.7-.3 3.3-1 4.6-2l3.6 3.8c-2.4 2-5.2 3.2-8.2 3.6zM91.3 77l-3.6-3.8c1-1.5 1.6-3.1 1.9-4.9h5c-.2 3.1-1.4 6.2-3.3 8.7z"/>
  <path d="M131.1 83.2l-5.4-20.3c-1.1-4.2-2.8-8.1-5-11.6v53.4c0 3.5-2.7 6.4-6 6.4H42.3c-3.3 0-6-2.9-6-6.4V43.4C21.5 53.9 13.9 73 18.9 91.5l5.4 20.3c6.4 23.8 31.1 38 54.9 31.7l20.3-5.4c23.7-6.4 38-31.1 31.6-54.9z" fill="#c6deff"/>
  <path d="M126.1 10.2l1.5 3.6 3.5 1.5-3.5 1.6-1.5 3.5-1.6-3.5-3.5-1.6 3.5-1.5zM62.8 124.9l1.2 2.8 2.8 1.2-2.8 1.3-1.2 2.8-1.3-2.8-2.8-1.3 2.8-1.2zM97.3 9.4l.9 2.1 2.1.9-2.1.9-.9 2-.9-2-2.1-.9 2.1-.9z" fill="#006dcd"/>
  <path d="M81.8 122.4c1.8.5 2.8 2.3 2.4 4-.5 1.8-2.3 2.8-4 2.4-1.8-.5-2.8-2.3-2.4-4 .5-1.8 2.3-2.8 4-2.4zM109.6 7.2c0 1.2-1 2.2-2.2 2.2-1.2 0-2.2-1-2.2-2.2 0-1.2 1-2.2 2.2-2.2 1.2 0 2.2 1 2.2 2.2z" fill="#69d0f4"/>
  <path d="M71.3 66.4c0 2.1.8 4.1 2.2 5.6a7.2 7.2 0 0 0 5.3 2.3c2 0 3.9-.8 5.3-2.3a8.21 8.21 0 0 0 0-11.2 7.2 7.2 0 0 0-5.3-2.3c-2 0-3.9.8-5.3 2.3a8.21 8.21 0 0 0-2.2 5.6z" fill="#2196f3" opacity=".75"/>
</svg>
