<svg data-name="Time" xmlns="http://www.w3.org/2000/svg" viewBox="0 0 105.21 130">
  <g stroke="#fff" stroke-miterlimit="10" stroke-width="1.24">
    <path d="M56.7 15.39a43.84 43.84 0 1 0 43.84 43.84 43.84 43.84 0 0 0-43.83-43.84zm1.89 83.82V91.5a1.88 1.88 0 1 0-3.76 0v7.7a40.06 40.06 0 0 1-38.1-38.1h7.7a1.88 1.88 0 0 0 0-3.75h-7.7a40.06 40.06 0 0 1 38.1-38.1v7.7a1.88 1.88 0 1 0 3.76 0v-7.7a40.06 40.06 0 0 1 38.1 38.1h-7.71a1.88 1.88 0 0 0 0 3.76h7.73a40.06 40.06 0 0 1-38.12 38.1z" fill="#1a237e"/>
    <path d="M76.55 76.72L58.59 58.46V39.48a1.88 1.88 0 0 0-3.76 0v19.75a1.88 1.88 0 0 0 .54 1.31l18.49 18.81a1.88 1.88 0 0 0 2.69-2.63z" fill="#2196f3"/>
  </g>
  <path d="M103.82 73.59l-3.34-12.45a43.84 43.84 0 1 1-81.12-25.26A41.04 41.04 0 0 0 1.4 81.2l4.96 18.5a41 41 0 0 0 50.06 28.91l18.5-4.96a41 41 0 0 0 28.91-50.06z" fill="#c6deff"/>
  <path fill="#006dcd" d="M55.9 2.27l1.4 3.25 3.25 1.4-3.25 1.4-1.4 3.25-1.4-3.25-3.25-1.4 3.25-1.4 1.4-3.24zM94.42 15.56l1.1 2.57 2.57 1.1-2.56 1.11-1.11 2.56-1.1-2.56-2.57-1.1 2.56-1.11 1.11-2.56zM32.78 107.26l.82 1.89 1.9.82-1.9.81-.82 1.9-.81-1.9-1.9-.81 1.9-.82.81-1.9z"/>
  <path d="M82.9.1a3.03 3.03 0 1 1-3.69 2.17A3.03 3.03 0 0 1 82.91.1zM28.99 99.42a2 2 0 1 1-2-2 2 2 0 0 1 2 2z" fill="#69d0f4"/>
</svg>
