<svg id="Startup" xmlns="http://www.w3.org/2000/svg" viewBox="0 0 150 150">
  <style>
    .st1{fill:#fff;stroke:#1a237e;stroke-width:1.8898;stroke-linecap:round;stroke-linejoin:round}.st4{fill:#69d0f4}
  </style>
  <path d="M133.4 71.7l-5.7-21.1c-1.4-5-3.5-9.7-6.3-13.8-1.1-1.6-2.2-3.1-3.5-4.5a46.67 46.67 0 0 0-47.4-14.6l-21.1 5.7C24.6 30 9.8 55.7 16.4 80.5l2 7.4 1.1 4.2 2.5 9.5c6.6 24.8 32.3 39.6 57.1 33l21.1-5.7c25-6.8 39.8-32.5 33.2-57.2zm-30.5 31.5a5.94 5.94 0 0 1-5.9 5.9H50c-3.2 0-5.9-2.6-5.9-5.9V39.9c0-.5.1-1 .2-1.5A6 6 0 0 1 50 34h41.2L103 45.8v57.4z" fill="#c6deff"/>
  <path class="st1" d="M102.4 45.9v57.6c0 .5-.1 1-.2 1.5-.6 2.5-2.9 4.4-5.7 4.4h-47c-3.3 0-5.9-2.6-5.9-5.9V40.3a5.94 5.94 0 0 1 5.9-5.9h41.2v8.8c0 .8.3 1.5.9 2.1.5.5 1.3.9 2.1.9l8.7-.3z"/>
  <g opacity=".75">
    <path d="M91.5 45.3c-.5-.5-.9-1.3-.9-2.1v-8.8 8.8c.1.8.4 1.6.9 2.1z" fill="#2196f3"/>
    <path class="st4" d="M103.3 45.6h-9.2c-.8 0-1.6-.3-2.1-.9-.5-.6-.9-1.3-.9-2.1v-9l10.7 10.6 1.5 1.4z"/>
  </g>
  <path class="st1" d="M61.3 79.3l8.8 8.8 17.6-17.6"/>
  <path d="M29.5 64.4l3.7 1.6 3.8-1.4-1.6 3.7 1.4 3.8-3.7-1.6-3.8 1.4 1.6-3.7zm88.2-35.1l2.7 1.7 3.1-.5-1.8 2.6.6 3.2-2.7-1.8-3.1.5 1.7-2.6zm-87 61.3l2.2.9 2.2-.8-1 2.2.9 2.2-2.2-.9-2.2.8.9-2.2z" fill="#006dcd"/>
  <path class="st4" d="M97.1 21.6c1.8-.6 3.8.4 4.4 2.2.6 1.8-.4 3.8-2.2 4.4-1.8.6-3.8-.4-4.4-2.2-.6-1.8.4-3.8 2.2-4.4zM21.4 87.1c.9.9.8 2.4-.1 3.2-.9.9-2.4.8-3.2-.1-.9-.9-.8-2.4.1-3.2.9-.9 2.3-.8 3.2.1z"/>
</svg>
